<?xml version="1.0" encoding="utf-8"?>
<!-- Generator: Adobe Illustrator 22.0.1, SVG Export Plug-In . SVG Version: 6.00 Build 0)  -->
<svg version="1.1" id="圖層_1" xmlns="http://www.w3.org/2000/svg" xmlns:xlink="http://www.w3.org/1999/xlink" x="0px" y="0px"
	 viewBox="0 0 512 128" enable-background="new 0 0 512 128" xml:space="preserve">
<rect fill="none" width="512" height="128"/>
<g>
	<g>
		<path fill="#004889" d="M36.619,26.743h8.903l3.285,26.917h0.107l3.92-26.917h8.267l4.239,26.917h0.105l3.179-26.917h8.585
			l-6.57,37.833h-9.856l-3.869-26.866h-0.105l-3.656,26.866h-9.856L36.619,26.743z"/>
		<path fill="#004889" d="M78.594,26.743h8.901v37.833h-8.901V26.743z"/>
		<path fill="#004889" d="M98.678,53.024v1.325c0,2.863,0.796,5.034,3.869,5.034c3.125,0,4.027-2.331,4.027-4.502
			c0-8.16-16.268-3.605-16.268-17.752c0-6.04,3.232-11.127,12.4-11.127c8.901,0,12.08,4.502,12.08,10.331v0.903h-8.584
			c0-1.803-0.212-3.127-0.742-3.976c-0.53-0.9-1.378-1.324-2.702-1.324c-2.226,0-3.55,1.324-3.55,4.08
			c0,7.896,16.267,3.923,16.267,17.274c0,8.585-4.769,12.03-12.928,12.03c-6.465,0-12.453-1.96-12.453-9.856v-2.438H98.678z"/>
		<path fill="#004889" d="M117.918,26.743h21.885v7.204h-12.983v7.578h12.187v7.208h-12.187v8.636h13.565v7.207h-22.467V26.743z"/>
		<path fill="#004889" d="M141.608,45.659h16.003v7.207h-16.003V45.659z"/>
		<path fill="#004889" d="M160.316,26.743h13.777c9.378,0,11.181,6.783,11.181,11.498c0,6.783-3.232,11.552-12.135,11.552h-3.921
			v14.783h-8.901V26.743z M169.218,43.221h2.438c3.55,0,4.398-2.224,4.398-4.769c0-2.914-0.953-5.14-4.557-5.14h-2.279V43.221z"/>
		<path fill="#004889" d="M185.438,44.706c0.053-3.923,1.219-6.307,3.232-7.685c2.014-1.378,4.452-1.853,8.002-1.853
			c7.047,0,10.174,2.438,10.174,8.478v14.729c0,2.174,0,4.929,1.007,6.201h-8.267c-0.318-1.007-0.423-2.174-0.477-3.284h-0.105
			c-1.166,2.542-3.868,4.027-6.729,4.027c-4.823,0-7.63-2.545-7.63-8.743c0-3.341,1.376-6.147,3.497-7.314
			c2.119-1.164,5.299-1.696,7.684-2.331c2.596-0.689,3.072-1.113,3.072-3.284c0-1.749-0.795-2.863-2.702-2.863
			c-2.385,0-3.072,1.431-3.126,3.923H185.438z M195.399,59.382c1.801,0,3.444-1.06,3.444-3.92c0-2.385,0.052-3.869,0.052-5.034
			c-2.702,1.431-3.868,1.482-4.662,2.118c-0.901,0.689-1.325,1.591-1.325,3.18C192.909,58.004,193.809,59.382,195.399,59.382z"/>
		<path fill="#004889" d="M210.082,44.706c0.053-3.923,1.219-6.307,3.232-7.685c2.014-1.378,4.452-1.853,8.002-1.853
			c7.047,0,10.174,2.438,10.174,8.478v14.729c0,2.174,0,4.929,1.007,6.201h-8.267c-0.318-1.007-0.423-2.174-0.477-3.284h-0.105
			c-1.166,2.542-3.868,4.027-6.729,4.027c-4.823,0-7.63-2.545-7.63-8.743c0-3.341,1.376-6.147,3.497-7.314
			c2.119-1.164,5.299-1.696,7.684-2.331c2.596-0.689,3.072-1.113,3.072-3.284c0-1.749-0.794-2.863-2.702-2.863
			c-2.385,0-3.072,1.431-3.125,3.923H210.082z M220.044,59.382c1.801,0,3.445-1.06,3.445-3.92c0-2.385,0.052-3.869,0.052-5.034
			c-2.702,1.431-3.868,1.482-4.662,2.118c-0.901,0.689-1.325,1.591-1.325,3.18C217.554,58.004,218.454,59.382,220.044,59.382z"/>
		<path fill="#004889" d="M242.622,53.024v1.325c0,2.863,0.796,5.034,3.868,5.034c3.127,0,4.029-2.331,4.029-4.502
			c0-8.16-16.268-3.605-16.268-17.752c0-6.04,3.232-11.127,12.4-11.127c8.901,0,12.08,4.502,12.08,10.331v0.903h-8.584
			c0-1.803-0.212-3.127-0.743-3.976c-0.53-0.9-1.378-1.324-2.702-1.324c-2.226,0-3.55,1.324-3.55,4.08
			c0,7.896,16.268,3.923,16.268,17.274c0,8.585-4.769,12.03-12.93,12.03c-6.463,0-12.452-1.96-12.452-9.856v-2.438H242.622z"/>
		<path fill="#004889" d="M270.763,26h7.206l-12.082,39.318h-7.206L270.763,26z"/>
		<path fill="#91308C" d="M285.709,26.743h13.194c8.796,0,12.559,4.555,12.559,17.696c0,13.725-1.749,20.137-13.46,20.137h-12.293
			V26.743z M294.611,58.004h2.384c4.134,0,5.564-1.642,5.564-12.98c0-9.221-0.741-11.712-5.457-11.712h-2.491V58.004z"/>
		<path fill="#91308C" d="M322.064,51.646v1.749c0,4.451,0.636,6.622,3.126,6.622c2.226,0,2.915-1.642,3.127-5.244h7.948
			c-0.159,7.1-4.027,10.545-11.127,10.545c-10.81,0-11.657-7.578-11.657-16.11c0-8.054,2.331-14.041,11.657-14.041
			c10.651,0,11.393,6.729,11.393,16.479H322.064z M328.264,46.666c0-4.027-0.529-6.2-2.913-6.2c-2.809,0-3.286,2.331-3.286,6.2
			H328.264z"/>
		<path fill="#91308C" d="M336.8,35.91h8.901l3.338,21.141h0.107l3.392-21.141h8.583l-7.1,28.666h-10.174L336.8,35.91z"/>
		<path fill="#91308C" d="M362.978,26.318h8.584v6.569h-8.584V26.318z M362.978,35.91h8.584v28.666h-8.584V35.91z"/>
		<path fill="#91308C" d="M389.316,46.719c0-4.187-0.955-5.936-3.232-5.936c-2.861,0-3.232,3.605-3.232,9.485
			c0,6.465,0.371,9.432,3.232,9.432c2.544,0,3.126-1.746,3.232-6.783h7.948c-0.053,8.849-3.55,12.401-11.339,12.401
			c-10.81,0-11.658-7.578-11.658-16.11c0-8.054,2.331-14.041,11.658-14.041c9.008,0,11.339,4.716,11.339,11.552H389.316z"/>
		<path fill="#91308C" d="M407.018,51.646v1.749c0,4.451,0.635,6.622,3.127,6.622c2.225,0,2.913-1.642,3.126-5.244h7.948
			c-0.159,7.1-4.027,10.545-11.127,10.545c-10.81,0-11.658-7.578-11.658-16.11c0-8.054,2.331-14.041,11.658-14.041
			c10.651,0,11.393,6.729,11.393,16.479H407.018z M413.217,46.666c0-4.027-0.53-6.2-2.913-6.2c-2.809,0-3.286,2.331-3.286,6.2
			H413.217z"/>
		<path fill="#91308C" d="M436.375,65.318c-11.711,0-13.3-7.632-13.3-19.659c0-12.03,1.589-19.659,13.3-19.659
			c12.612,0,13.301,9.167,13.301,19.659C449.676,56.151,448.987,65.318,436.375,65.318z M436.323,59.382
			c3.602,0,4.132-3.338,4.132-13.723c0-10.388-0.53-13.726-4.132-13.726c-3.498,0-4.028,3.338-4.028,13.726
			C432.295,56.044,432.825,59.382,436.323,59.382z"/>
		<path fill="#91308C" d="M452.649,35.91h8.267v3.392h0.104c1.22-2.545,3.709-4.134,6.889-4.134c4.876,0,7.472,2.438,7.472,7.947
			v21.461h-8.585V45.024c0-2.067-0.9-3.287-2.488-3.287c-1.645,0-3.074,1.274-3.074,4.08v18.759h-8.585V35.91z"/>
	</g>
</g>
</svg>
