<?xml version="1.0" encoding="utf-8"?>
<!-- Generator: Adobe Illustrator 22.0.1, SVG Export Plug-In . SVG Version: 6.00 Build 0)  -->
<svg version="1.1" xmlns="http://www.w3.org/2000/svg" xmlns:xlink="http://www.w3.org/1999/xlink" x="0px" y="0px"
	 viewBox="0 0 155.5 55" enable-background="new 0 0 155.5 55" xml:space="preserve">
<g id="圖層_2">
</g>
<g id="圖層_1">
	<rect fill="none" width="155.5" height="55"/>
	<rect fill="none" width="95.3" height="55"/>
	<g>
		<g>
			<path fill="#eeeeee" d="M15,15.491h8.725c5.817,0,8.305,3.012,8.305,11.702c0,9.076-1.156,13.316-8.901,13.316H15V15.491z
				 M20.886,36.163h1.577c2.733,0,3.679-1.086,3.679-8.584c0-6.097-0.49-7.745-3.608-7.745h-1.648V36.163z"/>
			<path fill="#eeeeee" d="M39.041,31.959v1.157c0,2.944,0.42,4.379,2.067,4.379c1.472,0,1.927-1.086,2.068-3.468h5.256
				C48.326,38.722,45.769,41,41.073,41c-7.148,0-7.709-5.011-7.709-10.653c0-5.326,1.542-9.285,7.709-9.285
				c7.043,0,7.534,4.45,7.534,10.897H39.041z M43.14,28.666c0-2.663-0.35-4.1-1.926-4.1c-1.858,0-2.173,1.541-2.173,4.1H43.14z"/>
			<path fill="#eeeeee" d="M48.785,21.553h5.886l2.207,13.98h0.071l2.243-13.98h5.676l-4.695,18.956h-6.728L48.785,21.553z"/>
			<path fill="#eeeeee" d="M66.096,15.21h5.676v4.344h-5.676V15.21z M66.096,21.553h5.676v18.956h-5.676V21.553z"/>
			<path fill="#eeeeee" d="M83.513,28.701c0-2.769-0.631-3.926-2.137-3.926c-1.892,0-2.138,2.384-2.138,6.272
				c0,4.275,0.245,6.237,2.138,6.237c1.682,0,2.067-1.155,2.137-4.485h5.256C88.733,38.651,86.421,41,81.27,41
				c-7.148,0-7.709-5.011-7.709-10.653c0-5.326,1.542-9.285,7.709-9.285c5.957,0,7.499,3.118,7.499,7.639H83.513z"/>
			<path fill="#eeeeee" d="M95.218,31.959v1.157c0,2.944,0.42,4.379,2.068,4.379c1.471,0,1.926-1.086,2.067-3.468h5.256
				C104.504,38.722,101.946,41,97.251,41c-7.148,0-7.709-5.011-7.709-10.653c0-5.326,1.542-9.285,7.709-9.285
				c7.043,0,7.534,4.45,7.534,10.897H95.218z M99.318,28.666c0-2.663-0.351-4.1-1.926-4.1c-1.858,0-2.173,1.541-2.173,4.1H99.318z"
				/>
			<path fill="#eeeeee" d="M114.632,41c-7.744,0-8.795-5.047-8.795-13c0-7.955,1.051-13,8.795-13c8.34,0,8.796,6.062,8.796,13
				C123.427,34.938,122.972,41,114.632,41z M114.597,37.075c2.382,0,2.733-2.207,2.733-9.075c0-6.869-0.351-9.076-2.733-9.076
				c-2.313,0-2.664,2.207-2.664,9.076C111.934,34.867,112.284,37.075,114.597,37.075z"/>
			<path fill="#eeeeee" d="M125.393,21.553h5.467v2.243h0.069c0.807-1.683,2.453-2.734,4.556-2.734c3.224,0,4.941,1.612,4.941,5.255
				v14.192h-5.677V27.58c0-1.367-0.595-2.174-1.645-2.174c-1.088,0-2.033,0.842-2.033,2.698v12.405h-5.677V21.553z"/>
		</g>
	</g>
</g>
</svg>
